<?xml version="1.0" encoding="utf-8"?>
<!-- Generator: Adobe Illustrator 19.0.1, SVG Export Plug-In . SVG Version: 6.00 Build 0)  -->
<svg version="1.1" id="Слой_1" xmlns="http://www.w3.org/2000/svg" xmlns:xlink="http://www.w3.org/1999/xlink" x="0px" y="0px"
	 viewBox="0 0 801 323.9" style="enable-background:new 0 0 801 323.9;" xml:space="preserve">
<style type="text/css">
	.st0{fill:#FF9900;}
	.st1{fill:#333333;}
</style>
<path class="st0" d="M133.8,207.9c-10.7,13.7-27.3,22.5-46,22.5h-0.2c-18.8,0-35.5-9-46.1-22.8l46.2-46L133.8,207.9z"/>
<g>
	<path class="st1" d="M415,40.1c-4.1-4.1-6.2-9.1-6.2-14.8s2.1-10.7,6.2-14.8c4.1-4.1,9.1-6.2,14.8-6.2c5.7,0,10.7,2.1,14.8,6.2
		c4.1,4.1,6.2,9.1,6.2,14.8s-2.1,10.7-6.2,14.8c-4.1,4.1-9.1,6.2-14.8,6.2C424.1,46.3,419.2,44.2,415,40.1z M418.2,244.6
		c-3.1-3.1-4.6-7-4.6-11.6V91c0-4.9,1.5-8.8,4.6-11.8c3.1-3,7-4.5,11.6-4.5c4.9,0,8.8,1.5,11.8,4.5c3,3,4.5,6.9,4.5,11.8v142
		c0,4.7-1.5,8.6-4.5,11.6c-3,3.1-6.9,4.6-11.8,4.6C425.2,249.2,421.3,247.7,418.2,244.6z"/>
	<path class="st1" d="M622.9,235.8c0,4.7-1.9,8.6-5.7,11.8c-3.2,2.6-6.6,3.8-10.2,3.8c-4.7,0-8.5-1.9-11.5-5.7l-60.6-75l-16,14v48.8
		c0,4.7-1.4,8.5-4.3,11.3c-2.9,2.9-6.7,4.3-11.3,4.3c-4.7,0-8.5-1.4-11.3-4.3c-2.9-2.9-4.3-6.6-4.3-11.3v-218
		c0-4.7,1.4-8.5,4.3-11.3c2.9-2.9,6.6-4.3,11.3-4.3c4.7,0,8.5,1.4,11.3,4.3c2.9,2.9,4.3,6.7,4.3,11.3v129.9l77.5-69.2
		c2.8-2.8,6.1-4.1,9.9-4.1c4.5,0,8.1,1.7,10.9,5.1c2.8,2.8,4.1,6.1,4.1,9.9c0,4.5-1.7,8.1-5.1,10.9l-58.7,52.3l61.9,76
		C621.7,228.8,622.9,232,622.9,235.8z"/>
	<path class="st1" d="M789.7,116.2c-7.6-13.4-18-23.9-31.3-31.4c-13.3-7.5-28.4-11.3-45.2-11.3c-17,0-32.2,3.8-45.6,11.3
		c-13.4,7.6-23.8,18-31.3,31.4c-7.4,13.4-11.2,28.7-11.2,46c0,17,3.7,32.2,11.2,45.6c7.4,13.4,17.9,23.9,31.3,31.4
		c13.4,7.6,28.6,11.3,45.6,11.3c17,0,32.2-3.8,45.5-11.3c13.3-7.5,23.7-18,31.1-31.4c7.4-13.4,11.2-28.6,11.2-45.6
		C801,144.9,797.2,129.6,789.7,116.2z M713.1,223.7c-34.1,0-61.8-27.6-61.8-61.8c0-34.1,27.6-61.8,61.8-61.8
		c34.1,0,61.8,27.6,61.8,61.8C774.8,196.1,747.2,223.7,713.1,223.7z"/>
	<path class="st1" d="M369.7,116.2c-7.6-13.4-18-23.9-31.3-31.4c-13.3-7.5-28.4-11.3-45.2-11.3c-0.1,0-0.2,0-0.3,0l0,0
		c-1.9,0-3.9,0.1-5.7,0.2c-0.1,0-0.2,0-0.3,0c-0.2,0-0.3,0-0.5,0c-14.3,0.9-27.3,4.6-38.8,11.1c-13.4,7.6-23.8,18-31.3,31.4
		c-7.4,13.4-11.2,28.7-11.2,46v145.5c0,4.9,1.5,8.8,4.6,11.8c3.1,3,7,4.5,11.6,4.5c4.9,0,8.8-1.5,11.8-4.5c3-3,4.5-6.9,4.5-11.8v-75
		c3.1,2.4,6.4,4.6,9.9,6.5c13.4,7.6,28.6,11.3,45.6,11.3c17,0,32.2-3.8,45.5-11.3c13.3-7.5,23.7-18,31.1-31.4
		c7.4-13.4,11.2-28.6,11.2-45.6C381,144.9,377.2,129.6,369.7,116.2z M293.1,223.7c-34.1,0-61.8-27.6-61.8-61.8
		c0-34.1,27.6-61.8,61.8-61.8c34.1,0,61.8,27.6,61.8,61.8C354.9,196.1,327.2,223.7,293.1,223.7z"/>
	<path class="st1" d="M164.2,117c-7.8-13.5-18.3-24.1-31.6-31.9c-13.3-7.8-28.1-11.6-44.5-11.6c-16.4,0-31.3,3.9-44.8,11.6
		c-13.5,7.8-24.1,18.4-31.8,31.9C3.8,130.5,0,145.5,0,162.1c0,2,0.1,4.1,0.2,6.1c0,0,0,0.1,0,0.1c0.1,2,0.3,3.9,0.5,5.8
		c0,0.1,0,0.2,0,0.2c0.2,1.8,0.5,3.6,0.8,5.4c0,0.2,0.1,0.4,0.1,0.6c0.3,1.6,0.6,3.2,1,4.7c0.1,0.5,0.2,0.9,0.3,1.4
		c0.3,1.2,0.6,2.3,0.9,3.5c1.7,6,4,11.8,6.9,17.4l0.3,0.1c0.1,0.1,0.1,0.3,0.2,0.4c7.4,13.4,17.9,23.9,31.3,31.4
		c13.4,7.6,28.6,11.3,45.6,11.3c17,0,32.2-3.8,45.5-11.3c3.4-2,6.7-4.1,9.7-6.5v0.6c0,4.7,1.5,8.6,4.6,11.6c3.1,3.1,7,4.6,11.6,4.6
		c4.7,0,8.6-1.5,11.6-4.6c3.1-3.1,4.6-7,4.6-11.6v-71.2C175.8,145.5,172,130.5,164.2,117z M87.9,223.7c-34.1,0-61.8-27.6-61.8-61.8
		c0-34.1,27.6-61.8,61.8-61.8s61.8,27.6,61.8,61.8C149.7,196.1,122,223.7,87.9,223.7z"/>
</g>
</svg>
